<svg width="104" height="67" viewBox="0 0 104 67" fill="none" xmlns="http://www.w3.org/2000/svg">
<path d="M20.793 42.2646L29.5611 66.5274L45.4182 42.249L20.793 42.2646Z" fill="#ABE7E5"/>
<path d="M94.2952 9.8741C82.3863 -2.13627 67.3665 0.0573657 65.7154 0.326692L56.2344 16.3457C56.2344 16.3457 71.5625 13.1567 80.1146 18.8399C84.6307 21.8415 87.9875 27.7433 87.6206 34.0627C87.4684 36.7247 86.676 39.0003 85.6455 40.8895C84.7751 42.3727 80.9811 47.7749 71.4025 49.0825C70.251 49.2035 68.9669 49.3011 67.5461 49.3674C67.1479 49.3752 66.7732 49.3908 66.4297 49.4142C65.1534 49.4572 63.7755 49.4767 62.2805 49.4689L46.2537 49.141L35.75 66.8853H70.8717C80.743 66.1203 89.7049 61.9203 95.7589 54.9179C103.562 45.8896 103.874 35.058 103.893 33.645C103.921 31.7441 103.893 19.5464 94.2991 9.87019L94.2952 9.8741Z" fill="#ABE7E5"/>
<path d="M24.3005 51.8575L42.0873 47.3481H22.5469L24.3005 51.8575Z" fill="#4BC5C4"/>
<path fill-rule="evenodd" clip-rule="evenodd" d="M60.5709 0H6.96339V16.6357H20.8514L0 47.4134L41.9914 47.3978L53.4397 29.9931L33.1076 30.0633L41.8774 16.6357H49.8565L60.5709 0Z" fill="#ABE7E5"/>
</svg>
