<svg width="1074" height="184" viewBox="0 0 1074 184" fill="none" xmlns="http://www.w3.org/2000/svg">
<g clip-path="url(#clip0_93_1684)">
<path d="M56.9688 116.07L80.9916 182.702L124.437 116.027L56.9688 116.07Z" fill="#ABE7E5"/>
<path d="M258.35 27.1169C225.722 -5.86678 184.571 0.157539 180.047 0.897182L154.071 44.8897C154.071 44.8897 196.067 36.1318 219.498 51.7394C231.871 59.9826 241.068 76.1905 240.063 93.5453C239.646 100.856 237.475 107.105 234.651 112.294C232.267 116.367 221.872 131.203 195.628 134.794C192.473 135.126 188.955 135.394 185.063 135.576C183.972 135.598 182.945 135.64 182.004 135.705C178.507 135.823 174.732 135.876 170.636 135.855L126.726 134.954L97.9478 183.685H194.174C221.219 181.584 245.773 170.05 262.36 150.819C283.739 126.025 284.594 96.2787 284.646 92.3982C284.722 87.1778 284.646 53.6797 258.36 27.1062L258.35 27.1169Z" fill="#ABE7E5"/>
<path d="M66.5784 142.413L115.311 130.03H61.7739L66.5784 142.413Z" fill="#4BC5C4"/>
<path fill-rule="evenodd" clip-rule="evenodd" d="M165.952 0H19.0783V45.6861H57.1286L0 130.21L115.048 130.167L146.414 82.3691L90.7081 82.5619L114.736 45.6861H136.597L165.952 0Z" fill="#ABE7E5"/>
<path d="M316.213 180.628V11.2844H392.961C411.303 11.2844 427.474 14.8326 441.471 21.9289C455.469 28.8639 466.412 38.6212 474.297 51.201C482.179 63.7808 486.122 78.6991 486.122 95.9561C486.122 113.052 482.179 127.97 474.297 140.711C466.412 153.291 455.469 163.129 441.471 170.225C427.474 177.16 411.303 180.628 392.961 180.628H316.213ZM355.31 148.452H391.029C402.292 148.452 412.027 146.356 420.232 142.163C428.6 137.808 435.036 131.679 439.543 123.777C444.208 115.874 446.54 106.6 446.54 95.9561C446.54 85.1504 444.208 75.8768 439.543 68.1353C435.036 60.2327 428.6 54.1848 420.232 49.9915C412.027 45.6368 402.292 43.4595 391.029 43.4595H355.31V148.452Z" fill="#ABE7E5"/>
<path d="M548.247 180.628V43.2176H494.185V11.2844H641.408V43.2176H587.344V180.628H548.247Z" fill="#ABE7E5"/>
<path d="M732.835 180.628V155.226L730.422 149.662V104.181C730.422 96.1173 727.928 89.8275 722.939 85.3115C718.112 80.7958 710.632 78.5378 700.495 78.5378C693.577 78.5378 686.738 79.6668 679.979 81.9248C673.382 84.0213 667.752 86.9244 663.086 90.6338L649.57 64.2647C656.65 59.2651 665.176 55.3942 675.152 52.6526C685.127 49.9107 695.264 48.5398 705.563 48.5398C725.353 48.5398 740.72 53.217 751.66 62.571C762.6 71.9254 768.072 86.5212 768.072 106.358V180.628H732.835ZM693.254 182.563C683.116 182.563 674.428 180.87 667.187 177.483C659.949 173.934 654.398 169.177 650.535 163.209C646.674 157.242 644.743 150.549 644.743 143.13C644.743 135.389 646.592 128.615 650.294 122.809C654.157 117.003 660.19 112.487 668.395 109.261C676.601 105.875 687.3 104.181 700.495 104.181H735.008V126.196H704.596C695.747 126.196 689.634 127.647 686.256 130.55C683.037 133.453 681.429 137.082 681.429 141.437C681.429 146.275 683.278 150.146 686.979 153.049C690.84 155.791 696.07 157.161 702.667 157.161C708.942 157.161 714.572 155.71 719.561 152.807C724.547 149.743 728.169 145.307 730.422 139.501L736.214 156.92C733.479 165.306 728.49 171.677 721.251 176.031C714.01 180.386 704.678 182.563 693.254 182.563Z" fill="#ABE7E5"/>
<path d="M833.282 154.017L834.246 108.052L894.826 50.4751H939.717L881.551 109.745L862.003 125.712L833.282 154.017ZM802.146 180.628V1.12378H839.797V180.628H802.146ZM898.927 180.628L855.003 125.954L878.655 96.6816L944.542 180.628H898.927Z" fill="#ABE7E5"/>
<path d="M1038.76 180.628V155.226L1036.35 149.662V104.181C1036.35 96.1173 1033.86 89.8275 1028.87 85.3115C1024.04 80.7958 1016.56 78.5378 1006.42 78.5378C999.505 78.5378 992.666 79.6668 985.907 81.9248C979.31 84.0213 973.68 86.9244 969.014 90.6338L955.498 64.2647C962.578 59.2651 971.104 55.3942 981.08 52.6526C991.055 49.9107 1001.19 48.5398 1011.49 48.5398C1031.28 48.5398 1046.65 53.217 1057.59 62.571C1068.53 71.9254 1074 86.5212 1074 106.358V180.628H1038.76ZM999.182 182.563C989.044 182.563 980.357 180.87 973.115 177.483C965.877 173.934 960.326 169.177 956.463 163.209C952.602 157.242 950.671 150.549 950.671 143.13C950.671 135.389 952.52 128.615 956.222 122.809C960.085 117.003 966.118 112.487 974.324 109.261C982.529 105.875 993.228 104.181 1006.42 104.181H1040.94V126.196H1010.52C1001.67 126.196 995.562 127.647 992.184 130.55C988.965 133.453 987.357 137.082 987.357 141.437C987.357 146.275 989.206 150.146 992.908 153.049C996.768 155.791 1002 157.161 1008.6 157.161C1014.87 157.161 1020.5 155.71 1025.49 152.807C1030.48 149.743 1034.1 145.307 1036.35 139.501L1042.14 156.92C1039.41 165.306 1034.42 171.677 1027.18 176.031C1019.94 180.386 1010.61 182.563 999.182 182.563Z" fill="#ABE7E5"/>
</g>
<defs>
<clipPath id="clip0_93_1684">
<rect width="1074" height="184" fill="white"/>
</clipPath>
</defs>
</svg>
