<?xml version="1.0" encoding="UTF-8"?>
<svg id="Layer_1" data-name="Layer 1" xmlns="http://www.w3.org/2000/svg" xmlns:xlink="http://www.w3.org/1999/xlink" viewBox="0 0 1435.54 224.69">
  <defs>
    <style>
      .cls-1, .cls-2, .cls-3 {
        fill: #2a2943;
      }

      .cls-1, .cls-3, .cls-4 {
        stroke-width: 0px;
      }

      .cls-2 {
        font-family: Arial-BoldMT, Arial;
        font-size: 126.68px;
        font-weight: 700;
      }

      .cls-3 {
        fill-rule: evenodd;
      }

      .cls-4 {
        fill: none;
      }

      .cls-5 {
        clip-path: url(#clippath);
      }
    </style>
    <clipPath id="clippath">
      <rect class="cls-4" width="1073" height="184"/>
    </clipPath>
  </defs>
  <g class="cls-5">
    <g>
      <path class="cls-1" d="M56.92,116.07l24,66.63,43.4-66.67-67.4.04Z"/>
      <path class="cls-1" d="M258.11,27.12C225.51-5.87,184.4.16,179.88.9l-25.95,43.99s41.96-8.76,65.37,6.85c12.36,8.24,21.55,24.45,20.55,41.81-.42,7.31-2.59,13.56-5.41,18.75-2.38,4.07-12.77,18.91-38.99,22.5-3.15.33-6.67.6-10.56.78-1.09.02-2.12.06-3.06.13-3.49.12-7.26.17-11.36.15l-43.87-.9-28.75,48.73h96.14c27.02-2.1,51.55-13.63,68.12-32.87,21.36-24.79,22.21-54.54,22.27-58.42.08-5.22,0-38.72-26.26-65.29h-.01Z"/>
      <path class="cls-1" d="M66.52,142.41l48.69-12.38h-53.49l4.8,12.38Z"/>
      <path class="cls-3" d="M165.8,0H19.06v45.69h38.01L0,130.21l114.94-.04,31.34-47.8-55.65.19,24.01-36.88h21.84L165.8,0Z"/>
      <path class="cls-1" d="M315.92,180.63V11.28h76.68c18.33,0,34.48,3.55,48.46,10.64,13.99,6.93,24.92,16.69,32.8,29.27,7.88,12.58,11.81,27.5,11.81,44.76s-3.94,32.01-11.81,44.75c-7.88,12.58-18.81,22.42-32.8,29.51-13.98,6.93-30.14,10.4-48.46,10.4h-76.68ZM354.98,148.45h35.69c11.25,0,20.98-2.1,29.18-6.29,8.36-4.35,14.79-10.48,19.29-18.39,4.66-7.9,6.99-17.18,6.99-27.82s-2.33-20.08-6.99-27.82c-4.5-7.9-10.93-13.95-19.29-18.14-8.2-4.35-17.92-6.53-29.18-6.53h-35.69v104.99Z"/>
      <path class="cls-1" d="M547.74,180.63V43.22h-54.01V11.28h147.08v31.93h-54.01v137.41h-39.06Z"/>
      <path class="cls-1" d="M732.15,180.63v-25.4l-2.41-5.56v-45.48c0-8.06-2.49-14.35-7.48-18.87-4.82-4.52-12.29-6.77-22.42-6.77-6.91,0-13.74,1.13-20.5,3.39-6.59,2.1-12.22,5-16.88,8.71l-13.5-26.37c7.07-5,15.59-8.87,25.56-11.61,9.97-2.74,20.09-4.11,30.38-4.11,19.77,0,35.12,4.68,46.05,14.03,10.93,9.35,16.4,23.95,16.4,43.79v74.27h-35.2ZM692.61,182.56c-10.13,0-18.81-1.69-26.04-5.08-7.23-3.55-12.78-8.31-16.64-14.27-3.86-5.97-5.79-12.66-5.79-20.08s1.85-14.51,5.54-20.32c3.86-5.81,9.89-10.32,18.09-13.55,8.2-3.39,18.89-5.08,32.07-5.08h34.48v22.01h-30.38c-8.84,0-14.95,1.45-18.32,4.35-3.22,2.9-4.82,6.53-4.82,10.89,0,4.84,1.85,8.71,5.55,11.61,3.86,2.74,9.08,4.11,15.67,4.11s11.89-1.45,16.88-4.35c4.98-3.06,8.6-7.5,10.85-13.31l5.79,17.42c-2.73,8.39-7.72,14.76-14.95,19.11-7.23,4.35-16.56,6.53-27.97,6.53Z"/>
      <path class="cls-1" d="M832.51,154.02l.96-45.96,60.52-57.58h44.85l-58.11,59.27-19.53,15.97-28.69,28.31ZM801.4,180.63V1.12h37.62v179.5h-37.62ZM898.09,180.63l-43.88-54.67,23.63-29.27,65.83,83.95h-45.57Z"/>
      <path class="cls-1" d="M1037.8,180.63v-25.4l-2.42-5.56v-45.48c0-8.06-2.49-14.35-7.47-18.87-4.82-4.52-12.3-6.77-22.42-6.77-6.92,0-13.75,1.13-20.5,3.39-6.59,2.1-12.22,5-16.88,8.71l-13.5-26.37c7.07-5,15.59-8.87,25.56-11.61,9.97-2.74,20.09-4.11,30.38-4.11,19.77,0,35.12,4.68,46.05,14.03,10.93,9.35,16.4,23.95,16.4,43.79v74.27h-35.2ZM998.25,182.56c-10.13,0-18.81-1.69-26.04-5.08-7.23-3.55-12.78-8.31-16.64-14.27-3.86-5.97-5.79-12.66-5.79-20.08s1.85-14.51,5.55-20.32c3.86-5.81,9.89-10.32,18.09-13.55,8.2-3.39,18.89-5.08,32.07-5.08h34.48v22.01h-30.39c-8.84,0-14.95,1.45-18.32,4.35-3.22,2.9-4.82,6.53-4.82,10.89,0,4.84,1.85,8.71,5.55,11.61,3.86,2.74,9.08,4.11,15.68,4.11,6.26,0,11.89-1.45,16.87-4.35,4.99-3.06,8.6-7.5,10.85-13.31l5.79,17.42c-2.73,8.39-7.72,14.76-14.95,19.11-7.23,4.35-16.55,6.53-27.97,6.53Z"/>
    </g>
  </g>
  <text class="cls-2" transform="translate(1176.67 177) scale(.94 1)"><tspan x="0" y="0">Beta</tspan></text>
</svg>