<svg width="1073" height="184" viewBox="0 0 1073 184" fill="none" xmlns="http://www.w3.org/2000/svg">
<g clip-path="url(#clip0_93_1674)">
<path d="M56.916 116.07L80.9165 182.702L124.321 116.027L56.916 116.07Z" fill="#2A2943"/>
<path d="M258.109 27.1169C225.511 -5.86677 184.399 0.157539 179.879 0.897182L153.927 44.8897C153.927 44.8897 195.884 36.1318 219.293 51.7394C231.655 59.9826 240.843 76.1906 239.839 93.5453C239.422 100.856 237.253 107.105 234.433 112.294C232.05 116.367 221.665 131.203 195.446 134.794C192.294 135.126 188.779 135.394 184.89 135.576C183.8 135.598 182.775 135.64 181.834 135.705C178.341 135.823 174.569 135.876 170.477 135.855L126.608 134.954L97.8564 183.685H193.993C221.013 181.584 245.544 170.05 262.116 150.819C283.475 126.025 284.329 96.2787 284.381 92.3982C284.457 87.1778 284.381 53.6797 258.12 27.1062L258.109 27.1169Z" fill="#2A2943"/>
<path d="M66.5168 142.413L115.204 130.03H61.7168L66.5168 142.413Z" fill="#2A2943"/>
<path fill-rule="evenodd" clip-rule="evenodd" d="M165.797 0H19.0605V45.6861H57.0754L0 130.21L114.941 130.167L146.278 82.3691L90.6236 82.5619L114.629 45.6861H136.469L165.797 0Z" fill="#2A2943"/>
<path d="M315.919 180.628V11.2844H392.595C410.921 11.2844 427.076 14.8326 441.06 21.9289C455.045 28.8639 465.977 38.6212 473.855 51.201C481.73 63.7808 485.669 78.6991 485.669 95.9561C485.669 113.052 481.73 127.97 473.855 140.711C465.977 153.291 455.045 163.129 441.06 170.225C427.076 177.16 410.921 180.628 392.595 180.628H315.919ZM354.979 148.452H390.665C401.918 148.452 411.643 146.356 419.841 142.163C428.201 137.808 434.631 131.679 439.133 123.777C443.795 115.874 446.124 106.6 446.124 95.9561C446.124 85.1504 443.795 75.8768 439.133 68.1353C434.631 60.2327 428.201 54.1848 419.841 49.9915C411.643 45.6368 401.918 43.4595 390.665 43.4595H354.979V148.452Z" fill="#2A2943"/>
<path d="M547.736 180.628V43.2176H493.725V11.2844H640.81V43.2176H586.796V180.628H547.736Z" fill="#2A2943"/>
<path d="M732.153 180.628V155.226L729.742 149.662V104.181C729.742 96.1173 727.251 89.8275 722.266 85.3115C717.443 80.7958 709.971 78.5378 699.843 78.5378C692.931 78.5378 686.099 79.6668 679.346 81.9248C672.755 84.0213 667.13 86.9244 662.468 90.6338L648.966 64.2647C656.039 59.2651 664.557 55.3942 674.523 52.6526C684.49 49.9107 694.617 48.5398 704.907 48.5398C724.678 48.5398 740.031 53.217 750.961 62.571C761.891 71.9254 767.357 86.5212 767.357 106.358V180.628H732.153ZM692.608 182.563C682.48 182.563 673.801 180.87 666.566 177.483C659.334 173.934 653.789 169.177 649.929 163.209C646.072 157.242 644.143 150.549 644.143 143.13C644.143 135.389 645.99 128.615 649.688 122.809C653.548 117.003 659.575 112.487 667.773 109.261C675.971 105.875 686.66 104.181 699.843 104.181H734.324V126.196H703.94C695.099 126.196 688.992 127.647 685.617 130.55C682.401 133.453 680.794 137.082 680.794 141.437C680.794 146.275 682.642 150.146 686.34 153.049C690.197 155.791 695.422 157.161 702.013 157.161C708.282 157.161 713.907 155.71 718.891 152.807C723.873 149.743 727.492 145.307 729.742 139.501L735.528 156.92C732.796 165.306 727.812 171.677 720.58 176.031C713.346 180.386 704.023 182.563 692.608 182.563Z" fill="#2A2943"/>
<path d="M832.506 154.017L833.469 108.052L893.992 50.4751H938.842L880.73 109.745L861.2 125.712L832.506 154.017ZM801.399 180.628V1.12378H839.015V180.628H801.399ZM898.09 180.628L854.206 125.954L877.837 96.6816L943.662 180.628H898.09Z" fill="#2A2943"/>
<path d="M1037.8 180.628V155.226L1035.38 149.662V104.181C1035.38 96.1173 1032.89 89.8275 1027.91 85.3115C1023.09 80.7958 1015.61 78.5378 1005.49 78.5378C998.574 78.5378 991.742 79.6668 984.989 81.9248C978.398 84.0213 972.773 86.9244 968.111 90.6338L954.608 64.2647C961.681 59.2651 970.2 55.3942 980.166 52.6526C990.132 49.9107 1000.26 48.5398 1010.55 48.5398C1030.32 48.5398 1045.67 53.217 1056.6 62.571C1067.53 71.9254 1073 86.5212 1073 106.358V180.628H1037.8ZM998.251 182.563C988.123 182.563 979.443 180.87 972.209 177.483C964.977 173.934 959.431 169.177 955.572 163.209C951.715 157.242 949.785 150.549 949.785 143.13C949.785 135.389 951.633 128.615 955.331 122.809C959.19 117.003 965.218 112.487 973.416 109.261C981.614 105.875 992.303 104.181 1005.49 104.181H1039.97V126.196H1009.58C1000.74 126.196 994.635 127.647 991.26 130.55C988.044 133.453 986.437 137.082 986.437 141.437C986.437 146.275 988.285 150.146 991.983 153.049C995.839 155.791 1001.06 157.161 1007.66 157.161C1013.92 157.161 1019.55 155.71 1024.53 152.807C1029.52 149.743 1033.13 145.307 1035.38 139.501L1041.17 156.92C1038.44 165.306 1033.45 171.677 1026.22 176.031C1018.99 180.386 1009.67 182.563 998.251 182.563Z" fill="#2A2943"/>
</g>
<defs>
<clipPath id="clip0_93_1674">
<rect width="1073" height="184" fill="white"/>
</clipPath>
</defs>
</svg>
