<svg width="104" height="67" viewBox="0 0 104 67" fill="none" xmlns="http://www.w3.org/2000/svg">
<path fill-rule="evenodd" clip-rule="evenodd" d="M41.8775 16.6357H49.8569L59.9274 1L60.5714 0H59.382H7.96387H6.96387V1V15.6357V16.6357H7.96387H19.6436H20.8515L20.174 17.6357L0.677656 46.4133L0 47.4135L1.20819 47.4131L22.6506 47.4051L29.1357 65.3501L29.5611 66.5274L30.2457 65.4793L44.7648 43.2495L45.3782 42.3103L45.4062 42.2675L45.4182 42.249L45.3782 42.2491L45.3902 42.2307L45.4182 42.1882L46.0362 41.2486L52.7804 30.9955L53.4397 29.9932L52.24 29.9974L34.3046 30.0593L33.1076 30.0635L33.7622 29.0612L41.8775 16.6357ZM51.5808 30.9996L33.111 31.0635L31.2559 31.0699L32.2703 29.5166L41.0403 16.0889L41.3362 15.6357H41.8775H49.3115L58.7379 1H7.96387V15.6357H20.8515H22.7369L21.6794 17.1966L1.88585 46.4128L22.6503 46.4051L23.3525 46.4048L23.5911 47.0652L29.8202 64.302L43.5699 43.2503L43.5227 43.2503L44.5427 41.6995L51.5808 30.9996Z" fill="#4BC5C4"/>
<path fill-rule="evenodd" clip-rule="evenodd" d="M93.9996 10.9962L93.5851 10.5782C82.7734 -0.325634 69.3049 0.840814 66.3336 1.24555L58.1894 15.0059C58.3305 14.9859 58.4777 14.9655 58.6304 14.9451C60.2288 14.7312 62.4516 14.5061 64.9497 14.4618C69.8972 14.3741 76.1278 14.9899 80.6681 18.007L80.6681 18.0071C85.4649 21.1953 89.0075 27.4283 88.6189 34.1206C88.4568 36.9523 87.6132 39.3705 86.5234 41.3684L86.5159 41.3821L86.508 41.3956C85.5284 43.0649 81.5003 48.7133 71.5378 50.0733L71.5224 50.0754L71.507 50.077C70.3345 50.2002 69.0309 50.2991 67.5927 50.3663L67.5792 50.3669L67.5657 50.3672C67.1809 50.3748 66.8226 50.3898 66.4977 50.4119L66.4806 50.4131L66.4633 50.4137C65.173 50.4571 63.7822 50.4767 62.2753 50.4689L62.2677 50.4688L62.2601 50.4687L46.8169 50.1527L37.504 65.8853H70.8327C80.4586 65.1302 89.1487 61.0346 95.0023 54.264C102.567 45.5108 102.875 34.9808 102.893 33.6312L102.893 33.6307C102.919 31.8242 102.889 20.3045 93.9996 10.9962ZM94.9923 10.5912C103.895 20.1424 103.92 31.7911 103.893 33.645C103.874 35.058 103.562 45.8896 95.7589 54.9179C89.7049 61.9203 80.743 66.1202 70.8717 66.8853H36.9121H35.75L36.3419 65.8853L46.2537 49.141L62.2805 49.4689C63.7755 49.4767 65.1534 49.4572 66.4297 49.4142C66.7732 49.3908 67.1479 49.3752 67.5461 49.3674C68.9669 49.3011 70.251 49.2035 71.4025 49.0825C80.9811 47.7749 84.7751 42.3727 85.6455 40.8895C86.676 39.0003 87.4684 36.7247 87.6206 34.0627C87.9875 27.7433 84.6307 21.8415 80.1146 18.8399C73.0641 14.1546 61.408 15.4994 57.5323 16.1161C56.7069 16.2474 56.2344 16.3457 56.2344 16.3457L56.9095 15.2051L65.7154 0.326692C67.3581 0.058737 82.2337 -2.11399 94.1131 9.69176C94.1738 9.75217 94.2346 9.81295 94.2952 9.8741L94.2991 9.87019C94.4148 9.98693 94.5292 10.104 94.6422 10.2215C94.7604 10.3444 94.8771 10.4676 94.9923 10.5912Z" fill="#4BC5C4"/>
</svg>
