<?xml version="1.0" encoding="utf-8"?>
<!-- Generator: Adobe Illustrator 28.1.0, SVG Export Plug-In . SVG Version: 6.00 Build 0)  -->
<svg version="1.1" id="Layer_1" xmlns="http://www.w3.org/2000/svg" xmlns:xlink="http://www.w3.org/1999/xlink" x="0px" y="0px"
	 viewBox="0 0 1080 1080" style="enable-background:new 0 0 1080 1080;" xml:space="preserve">
<style type="text/css">
	.st0{fill:#182925;}
	.st1{fill:#CCFC31;}
	.st2{fill:#FFFFFF;}
</style>
<g>
	<circle class="st1" cx="540" cy="540" r="520.97"/>
	<g>
		<path d="M806.24,534.12c-0.15-21.27-2.99-42.17-9.05-62.56c-6.89-23.18-17.23-44.61-36.36-60.18
			c-30.09-24.5-63.91-26.08-99.21-13.6c-15.58,5.51-28.14,15.67-38.73,28.3c-45.52-56.96-123.02-54.9-168.04,4.18
			c-1.04-1.32-2.06-2.6-3.05-3.9c-24.05-31.51-58.29-43.3-93.29-31.76c-24.73,8.15-42.43,25.09-56.14,46.53
			c-18.52,28.97-26.78,61.13-29.02,95.09c0.01,1.65,0.02,3.3,0.03,4.95c0,9.31,0,18.62,0,27.92c0,10.58,0,21.16-0.01,31.74
			c-0.36,10.72,0.72,21.05,6.83,30.38c8.54,13.04,20.61,18.97,35.93,17.12c14.41-1.74,22.65-11.2,27.23-24.31
			c1.42-4.06,2.51-8.24,2.74-12.55c1.09-20.66,0.09-41.32-0.13-61.98c-0.1-8.65-8.1-15.3-16.67-15.03
			c-8.73,0.27-15.9,7.2-15.98,15.8c-0.1,11.08,0.1,22.16,0.1,33.24c0,8.27,0.08,16.54-0.29,24.8c-0.11,2.46,0.01,6.88-2.99,6.7
			c-2.76-0.17-3.55-4.28-3.65-7.38c-0.03-0.83,0-1.65-0.01-2.48c-0.09-12.4-0.04-24.81-0.32-37.21c-0.57-25.04,0.29-49.9,8.08-74.03
			c7.17-22.2,17.42-42.5,35.93-57.59c23.87-19.46,52.69-16.67,72.53,6.79c3.75,4.44,6.8,9.33,10.01,14.14
			c2.18,3.26,2.13,5.93,0.47,9.44c-14.13,29.84-21.07,61.48-22.24,94.31c-0.87,24.45-0.13,48.93,0.19,73.4
			c0.39,29.43,0.29,58.86,0.56,88.3c0.2,21.65,0.18,43.32,1.12,64.95c0.67,15.47,4.41,30.45,13.25,43.54
			c13.57,20.09,38.72,18.88,50.48-2.34c6.49-11.71,8.81-24.55,8.76-37.72c-0.15-39.52-0.62-79.03-0.92-118.55
			c-0.36-47.79-0.75-95.57-0.97-143.36c-0.1-21.33-3.2-42.12-10.23-62.27c-0.8-2.3-0.58-3.92,0.75-5.91
			c6.46-9.68,13.84-18.52,22.76-26.06c26.34-22.28,59.5-23.19,85.84-2.21c7.55,6.02,13.82,13.26,19.5,21.05
			c1.75,2.39,1.99,4.28,0.88,7.12c-6.33,16.25-10.28,33.08-11.55,50.5c-1.36,18.66-0.07,37.33,0.04,55.99
			c0.18,32.08,0.47,64.16,0.66,96.24c0.24,39.36,0.4,78.72,0.67,118.07c0.05,6.94,0.45,13.89,1.91,20.7
			c3.22,15.03,8.92,28.8,21.73,38.33c12.03,8.94,27.71,6.98,37.38-4.47c8.41-9.96,12.25-21.88,13.28-34.59
			c1.18-14.51,0.37-29.07,0.25-43.62c-0.44-50.93-0.68-101.85-1.05-152.78c-0.14-18.68-0.03-37.38-0.76-56.03
			c-1.24-31.52-8.17-61.77-22.24-90.18c-1.3-2.63-0.45-4.27,0.9-6.23c12.95-18.69,30.76-28.37,53.52-29.32
			c20.73-0.87,38.02,5.81,50.8,22.52c12.91,16.88,18.86,36.59,21.94,57.18c5.17,34.52,2.46,69.31,2.91,103.99
			c0.03,2.62-0.23,5.48-2.08,8.02c-1.66-2.69-1.63-5.29-1.64-7.93c-0.09-22.49-0.17-44.98-0.33-67.48
			c-0.07-10.25-6.44-17.36-15.6-17.64c-10.47-0.32-17.49,6.39-17.46,17.1c0.06,23.65,0.34,47.29,0.41,70.94
			c0.02,7.28,1.8,14.09,5.11,20.46c7.03,13.54,20.26,20.7,35.85,18.64c14.16-1.87,21.62-11.51,25.78-24.35
			c2.47-7.63,3.34-15.49,3.31-23.44C806.6,579.09,806.4,556.61,806.24,534.12z M450.11,805.6c-3.57-9.56-4.75-18.75-4.82-28.13
			c-0.32-47.94-0.59-95.89-1.02-143.83c-0.22-24.13-1.13-48.26-0.29-72.39c0.43-12.4,2.11-24.68,4.67-36.82
			c0.26-0.8,0.72-1.26,1.63-0.97c0.11,9.42,0.25,18.84,0.31,28.26c0.34,50.92,0.64,101.84,1.01,152.77
			c0.21,28.43,0.54,56.86,0.82,85.28C452.47,794.92,451.8,799.95,450.11,805.6z M631.72,808.58c-4.86-8.44-5.77-17.25-5.85-26.15
			c-0.3-32.9-0.46-65.8-0.68-98.7c-0.33-49.59-0.58-99.19-1.06-148.78c-0.09-9.22-0.57-18.4,1.39-27.64
			c4.83,16.39,7.1,33.21,7.27,50.27c0.35,35.21,0.44,70.43,0.69,105.64c0.3,43.15,0.65,86.29,0.99,129.44
			C634.51,797.93,634.05,803.1,631.72,808.58z"/>
		<path d="M380.66,366.02c36.82,0.12,66.89-29.7,66.86-66.31c-0.03-36.71-29.5-66.06-66.35-66.06c-37.02,0-66.49,29.14-66.54,65.8
			C314.59,336.05,344.19,365.9,380.66,366.02z M381.2,266.63c18.4,0.02,32.93,14.53,33.05,33c0.11,18.3-14.97,33.44-33.36,33.49
			c-18.23,0.05-33.11-15.2-32.98-33.8C348.03,280.94,362.63,266.61,381.2,266.63z"/>
		<path d="M540.34,366.06c36.72,0.18,66.26-29.18,66.33-65.95c0.08-36.9-28.96-66.23-65.83-66.49
			c-36.42-0.26-66.59,29.26-66.68,65.24C474.07,336.5,503,365.87,540.34,366.06z M540.36,266.52c18.33-0.08,33.38,15.04,33.32,33.47
			c-0.06,18.46-15.06,33.23-33.59,33.09c-18.04-0.14-33.05-15.3-32.99-33.35C507.15,281.83,522.41,266.6,540.36,266.52z"/>
		<path d="M699.25,366c37.17,0.1,66.6-29.05,66.77-66.12c0.17-36.78-29.14-66.17-66.02-66.2c-36.63-0.04-66.44,28.97-66.48,64.7
			C633.47,336.17,662.37,365.9,699.25,366z M699.42,266.62c18.69-0.09,33.56,14.54,33.6,33.05c0.04,18.37-15.12,33.54-33.41,33.45
			c-18.01-0.09-33.12-15.25-33.17-33.28C666.41,281.55,681.14,266.71,699.42,266.62z"/>
	</g>
</g>
</svg>
